<?xml version="1.0" encoding="utf-8"?>
<!-- Generator: Adobe Illustrator 22.1.0, SVG Export Plug-In . SVG Version: 6.00 Build 0)  -->
<svg version="1.1" xmlns="http://www.w3.org/2000/svg" xmlns:xlink="http://www.w3.org/1999/xlink" x="0px" y="0px"
	 viewBox="0 0 1920 1080" style="enable-background:new 0 0 1920 1080;" xml:space="preserve">
<style type="text/css">
	.st0{fill:url(#SVGID_1_);}
	.st1{filter:url(#Adobe_OpacityMaskFilter);}
	.st2{fill:url(#SVGID_3_);stroke:#000000;stroke-width:5;stroke-miterlimit:10;}
	.st3{mask:url(#SVGID_2_);}
	.st4{fill:#FFFFFF;}
</style>
<g id="Layer_2">
	<linearGradient id="SVGID_1_" gradientUnits="userSpaceOnUse" x1="62.1133" y1="-88.707" x2="1857.8867" y2="1168.707">
		<stop  offset="5.617887e-03" style="stop-color:#000000"/>
		<stop  offset="0.1194" style="stop-color:#000106"/>
		<stop  offset="0.2684" style="stop-color:#000416"/>
		<stop  offset="0.4368" style="stop-color:#000831"/>
		<stop  offset="0.6183" style="stop-color:#000F57"/>
		<stop  offset="0.7" style="stop-color:#00126A"/>
		<stop  offset="0.7406" style="stop-color:#001B71"/>
		<stop  offset="0.8067" style="stop-color:#003385"/>
		<stop  offset="0.8898" style="stop-color:#005BA6"/>
		<stop  offset="0.9" style="stop-color:#0060AA"/>
		<stop  offset="1" style="stop-color:#0071BC"/>
	</linearGradient>
	<rect x="0" class="st0" width="1920" height="1080"/>
</g>
<g id="Layer_1">
	<defs>
		<filter id="Adobe_OpacityMaskFilter" filterUnits="userSpaceOnUse" x="-86.6" y="-100" width="2165.1" height="1250">
			<feFlood  style="flood-color:white;flood-opacity:1" result="back"/>
			<feBlend  in="SourceGraphic" in2="back" mode="normal"/>
		</filter>
	</defs>
	<mask maskUnits="userSpaceOnUse" x="-86.6" y="-100" width="2165.1" height="1250" id="SVGID_2_">
		<g class="st1">
			<linearGradient id="SVGID_3_" gradientUnits="userSpaceOnUse" x1="-78.4304" y1="-228.5727" x2="2055.4304" y2="1265.5728">
				<stop  offset="0" style="stop-color:#FFFFFF"/>
				<stop  offset="4.026827e-03" style="stop-color:#F9F9F9"/>
				<stop  offset="3.885464e-02" style="stop-color:#CAC9C9"/>
				<stop  offset="7.194395e-02" style="stop-color:#A5A3A3"/>
				<stop  offset="0.1024" style="stop-color:#8A8888"/>
				<stop  offset="0.1294" style="stop-color:#7A7878"/>
				<stop  offset="0.15" style="stop-color:#747272"/>
				<stop  offset="0.5507" style="stop-color:#3C3A3A"/>
				<stop  offset="1" style="stop-color:#000000"/>
			</linearGradient>
			<rect x="-141.5" y="-138.5" class="st2" width="2260" height="1314"/>
		</g>
	</mask>
	<g class="st3">
		<g>
			<path class="st4" d="M0-94.2l81.6,47.1v94.2L0,94.2l-81.6-47.1v-94.2L0-94.2 M0-100l-86.6,50V50L0,100l86.6-50V-50L0-100L0-100z"
				/>
		</g>
		<g>
			<path class="st4" d="M173.2-94.2l81.6,47.1v94.2l-81.6,47.1L91.6,47.1v-94.2L173.2-94.2 M173.2-100L86.6-50V50l86.6,50l86.6-50
				V-50L173.2-100L173.2-100z"/>
		</g>
		<g>
			<path class="st4" d="M346.4-94.2L428-47.1v94.2l-81.6,47.1l-81.6-47.1v-94.2L346.4-94.2 M346.4-100l-86.6,50V50l86.6,50L433,50
				V-50L346.4-100L346.4-100z"/>
		</g>
		<g>
			<path class="st4" d="M519.6-94.2l81.6,47.1v94.2l-81.6,47.1L438,47.1v-94.2L519.6-94.2 M519.6-100L433-50V50l86.6,50l86.6-50V-50
				L519.6-100L519.6-100z"/>
		</g>
		<g>
			<path class="st4" d="M692.8-94.2l81.6,47.1v94.2l-81.6,47.1l-81.6-47.1v-94.2L692.8-94.2 M692.8-100l-86.6,50V50l86.6,50l86.6-50
				V-50L692.8-100L692.8-100z"/>
		</g>
		<g>
			<path class="st4" d="M866-94.2l81.6,47.1v94.2L866,94.2l-81.6-47.1l0-94.2L866-94.2 M866-100l-86.6,50l0,100l86.6,50l86.6-50V-50
				L866-100L866-100z"/>
		</g>
		<g>
			<path class="st4" d="M1039.2-94.2l81.6,47.1v94.2l-81.6,47.1l-81.6-47.1v-94.2L1039.2-94.2 M1039.2-100l-86.6,50V50l86.6,50
				l86.6-50V-50L1039.2-100L1039.2-100z"/>
		</g>
		<g>
			<path class="st4" d="M1212.4-94.2l81.6,47.1l0,94.2l-81.6,47.1l-81.6-47.1l0-94.2L1212.4-94.2 M1212.4-100l-86.6,50l0,100
				l86.6,50l86.6-50l0-100L1212.4-100L1212.4-100z"/>
		</g>
		<g>
			<path class="st4" d="M1385.6-94.2l81.6,47.1v94.2l-81.6,47.1L1304,47.1v-94.2L1385.6-94.2 M1385.6-100L1299-50V50l86.6,50
				l86.6-50V-50L1385.6-100L1385.6-100z"/>
		</g>
		<g>
			<path class="st4" d="M1558.8-94.2l81.6,47.1v94.2l-81.6,47.1l-81.6-47.1v-94.2L1558.8-94.2 M1558.8-100l-86.6,50V50l86.6,50
				l86.6-50V-50L1558.8-100L1558.8-100z"/>
		</g>
		<g>
			<path class="st4" d="M1732.1-94.2l81.6,47.1v94.2l-81.6,47.1l-81.6-47.1v-94.2L1732.1-94.2 M1732.1-100l-86.6,50V50l86.6,50
				l86.6-50V-50L1732.1-100L1732.1-100z"/>
		</g>
		<g>
			<path class="st4" d="M1905.3-94.2l81.6,47.1v94.2l-81.6,47.1l-81.6-47.1v-94.2L1905.3-94.2 M1905.3-100l-86.6,50V50l86.6,50
				l86.6-50V-50L1905.3-100L1905.3-100z"/>
		</g>
		<g>
			<path class="st4" d="M86.6,55.8l81.6,47.1v94.2l-81.6,47.1L5,197.1v-94.2L86.6,55.8 M86.6,50L0,100v100l86.6,50l86.6-50V100
				L86.6,50L86.6,50z"/>
		</g>
		<g>
			<path class="st4" d="M259.8,55.8l81.6,47.1v94.2l-81.6,47.1l-81.6-47.1v-94.2L259.8,55.8 M259.8,50l-86.6,50v100l86.6,50l86.6-50
				V100L259.8,50L259.8,50z"/>
		</g>
		<g>
			<path class="st4" d="M433,55.8l81.6,47.1v94.2L433,244.2l-81.6-47.1v-94.2L433,55.8 M433,50l-86.6,50v100l86.6,50l86.6-50V100
				L433,50L433,50z"/>
		</g>
		<g>
			<path class="st4" d="M606.2,55.8l81.6,47.1v94.2l-81.6,47.1l-81.6-47.1v-94.2L606.2,55.8 M606.2,50l-86.6,50v100l86.6,50l86.6-50
				V100L606.2,50L606.2,50z"/>
		</g>
		<g>
			<path class="st4" d="M779.4,55.8l81.6,47.1v94.2l-81.6,47.1l-81.6-47.1l0-94.2L779.4,55.8 M779.4,50l-86.6,50l0,100l86.6,50
				l86.6-50V100L779.4,50L779.4,50z"/>
		</g>
		<g>
			<path class="st4" d="M952.6,55.8l81.6,47.1v94.2l-81.6,47.1L871,197.1v-94.2L952.6,55.8 M952.6,50L866,100v100l86.6,50l86.6-50
				V100L952.6,50L952.6,50z"/>
		</g>
		<g>
			<path class="st4" d="M1125.8,55.8l81.6,47.1v94.2l-81.6,47.1l-81.6-47.1v-94.2L1125.8,55.8 M1125.8,50l-86.6,50v100l86.6,50
				l86.6-50V100L1125.8,50L1125.8,50z"/>
		</g>
		<g>
			<path class="st4" d="M1299,55.8l81.6,47.1v94.2l-81.6,47.1l-81.6-47.1v-94.2L1299,55.8 M1299,50l-86.6,50v100l86.6,50l86.6-50
				V100L1299,50L1299,50z"/>
		</g>
		<g>
			<path class="st4" d="M1472.2,55.8l81.6,47.1v94.2l-81.6,47.1l-81.6-47.1v-94.2L1472.2,55.8 M1472.2,50l-86.6,50v100l86.6,50
				l86.6-50V100L1472.2,50L1472.2,50z"/>
		</g>
		<g>
			<path class="st4" d="M1645.4,55.8l81.6,47.1v94.2l-81.6,47.1l-81.6-47.1v-94.2L1645.4,55.8 M1645.4,50l-86.6,50v100l86.6,50
				l86.6-50V100L1645.4,50L1645.4,50z"/>
		</g>
		<g>
			<path class="st4" d="M1818.7,55.8l81.6,47.1v94.2l-81.6,47.1l-81.6-47.1v-94.2L1818.7,55.8 M1818.7,50l-86.6,50v100l86.6,50
				l86.6-50V100L1818.7,50L1818.7,50z"/>
		</g>
		<g>
			<path class="st4" d="M1991.9,55.8l81.6,47.1v94.2l-81.6,47.1l-81.6-47.1v-94.2L1991.9,55.8 M1991.9,50l-86.6,50v100l86.6,50
				l86.6-50V100L1991.9,50L1991.9,50z"/>
		</g>
		<g>
			<path class="st4" d="M0,205.8l81.6,47.1v94.2L0,394.2l-81.6-47.1v-94.2L0,205.8 M0,200l-86.6,50v100L0,400l86.6-50V250L0,200
				L0,200z"/>
		</g>
		<g>
			<path class="st4" d="M173.2,205.8l81.6,47.1v94.2l-81.6,47.1l-81.6-47.1v-94.2L173.2,205.8 M173.2,200l-86.6,50v100l86.6,50
				l86.6-50V250L173.2,200L173.2,200z"/>
		</g>
		<g>
			<path class="st4" d="M346.4,205.8l81.6,47.1v94.2l-81.6,47.1l-81.6-47.1v-94.2L346.4,205.8 M346.4,200l-86.6,50v100l86.6,50
				l86.6-50V250L346.4,200L346.4,200z"/>
		</g>
		<g>
			<path class="st4" d="M519.6,205.8l81.6,47.1v94.2l-81.6,47.1L438,347.1v-94.2L519.6,205.8 M519.6,200L433,250v100l86.6,50
				l86.6-50V250L519.6,200L519.6,200z"/>
		</g>
		<g>
			<path class="st4" d="M692.8,205.8l81.6,47.1v94.2l-81.6,47.1l-81.6-47.1v-94.2L692.8,205.8 M692.8,200l-86.6,50v100l86.6,50
				l86.6-50V250L692.8,200L692.8,200z"/>
		</g>
		<g>
			<path class="st4" d="M866,205.8l81.6,47.1v94.2L866,394.2l-81.6-47.1l0-94.2L866,205.8 M866,200l-86.6,50l0,100l86.6,50l86.6-50
				V250L866,200L866,200z"/>
		</g>
		<g>
			<path class="st4" d="M1039.2,205.8l81.6,47.1v94.2l-81.6,47.1l-81.6-47.1v-94.2L1039.2,205.8 M1039.2,200l-86.6,50v100l86.6,50
				l86.6-50V250L1039.2,200L1039.2,200z"/>
		</g>
		<g>
			<path class="st4" d="M1212.4,205.8l81.6,47.1l0,94.2l-81.6,47.1l-81.6-47.1l0-94.2L1212.4,205.8 M1212.4,200l-86.6,50l0,100
				l86.6,50l86.6-50l0-100L1212.4,200L1212.4,200z"/>
		</g>
		<g>
			<path class="st4" d="M1385.6,205.8l81.6,47.1v94.2l-81.6,47.1l-81.6-47.1v-94.2L1385.6,205.8 M1385.6,200l-86.6,50v100l86.6,50
				l86.6-50V250L1385.6,200L1385.6,200z"/>
		</g>
		<g>
			<path class="st4" d="M1558.8,205.8l81.6,47.1v94.2l-81.6,47.1l-81.6-47.1v-94.2L1558.8,205.8 M1558.8,200l-86.6,50v100l86.6,50
				l86.6-50V250L1558.8,200L1558.8,200z"/>
		</g>
		<g>
			<path class="st4" d="M1732.1,205.8l81.6,47.1v94.2l-81.6,47.1l-81.6-47.1v-94.2L1732.1,205.8 M1732.1,200l-86.6,50v100l86.6,50
				l86.6-50V250L1732.1,200L1732.1,200z"/>
		</g>
		<g>
			<path class="st4" d="M1905.3,205.8l81.6,47.1v94.2l-81.6,47.1l-81.6-47.1v-94.2L1905.3,205.8 M1905.3,200l-86.6,50v100l86.6,50
				l86.6-50V250L1905.3,200L1905.3,200z"/>
		</g>
		<g>
			<path class="st4" d="M86.6,355.8l81.6,47.1v94.2l-81.6,47.1L5,497.1v-94.2L86.6,355.8 M86.6,350L0,400v100l86.6,50l86.6-50V400
				L86.6,350L86.6,350z"/>
		</g>
		<g>
			<path class="st4" d="M259.8,355.8l81.6,47.1v94.2l-81.6,47.1l-81.6-47.1v-94.2L259.8,355.8 M259.8,350l-86.6,50v100l86.6,50
				l86.6-50V400L259.8,350L259.8,350z"/>
		</g>
		<g>
			<path class="st4" d="M433,355.8l81.6,47.1v94.2L433,544.2l-81.6-47.1v-94.2L433,355.8 M433,350l-86.6,50v100l86.6,50l86.6-50V400
				L433,350L433,350z"/>
		</g>
		<g>
			<path class="st4" d="M606.2,355.8l81.6,47.1v94.2l-81.6,47.1l-81.6-47.1v-94.2L606.2,355.8 M606.2,350l-86.6,50v100l86.6,50
				l86.6-50V400L606.2,350L606.2,350z"/>
		</g>
		<g>
			<path class="st4" d="M779.4,355.8l81.6,47.1v94.2l-81.6,47.1l-81.6-47.1l0-94.2L779.4,355.8 M779.4,350l-86.6,50l0,100l86.6,50
				l86.6-50V400L779.4,350L779.4,350z"/>
		</g>
		<g>
			<path class="st4" d="M952.6,355.8l81.6,47.1v94.2l-81.6,47.1L871,497.1v-94.2L952.6,355.8 M952.6,350L866,400v100l86.6,50
				l86.6-50V400L952.6,350L952.6,350z"/>
		</g>
		<g>
			<path class="st4" d="M1125.8,355.8l81.6,47.1v94.2l-81.6,47.1l-81.6-47.1v-94.2L1125.8,355.8 M1125.8,350l-86.6,50v100l86.6,50
				l86.6-50V400L1125.8,350L1125.8,350z"/>
		</g>
		<g>
			<path class="st4" d="M1299,355.8l81.6,47.1v94.2l-81.6,47.1l-81.6-47.1v-94.2L1299,355.8 M1299,350l-86.6,50v100l86.6,50l86.6-50
				V400L1299,350L1299,350z"/>
		</g>
		<g>
			<path class="st4" d="M1472.2,355.8l81.6,47.1v94.2l-81.6,47.1l-81.6-47.1v-94.2L1472.2,355.8 M1472.2,350l-86.6,50v100l86.6,50
				l86.6-50V400L1472.2,350L1472.2,350z"/>
		</g>
		<g>
			<path class="st4" d="M1645.4,355.8l81.6,47.1v94.2l-81.6,47.1l-81.6-47.1v-94.2L1645.4,355.8 M1645.4,350l-86.6,50v100l86.6,50
				l86.6-50V400L1645.4,350L1645.4,350z"/>
		</g>
		<g>
			<path class="st4" d="M1818.7,355.8l81.6,47.1v94.2l-81.6,47.1l-81.6-47.1v-94.2L1818.7,355.8 M1818.7,350l-86.6,50v100l86.6,50
				l86.6-50V400L1818.7,350L1818.7,350z"/>
		</g>
		<g>
			<path class="st4" d="M1991.9,355.8l81.6,47.1v94.2l-81.6,47.1l-81.6-47.1v-94.2L1991.9,355.8 M1991.9,350l-86.6,50v100l86.6,50
				l86.6-50V400L1991.9,350L1991.9,350z"/>
		</g>
		<g>
			<path class="st4" d="M0,505.8l81.6,47.1v94.2L0,694.2l-81.6-47.1v-94.2L0,505.8 M0,500l-86.6,50v100L0,700l86.6-50V550L0,500
				L0,500z"/>
		</g>
		<g>
			<path class="st4" d="M173.2,505.8l81.6,47.1v94.2l-81.6,47.1l-81.6-47.1v-94.2L173.2,505.8 M173.2,500l-86.6,50v100l86.6,50
				l86.6-50V550L173.2,500L173.2,500z"/>
		</g>
		<g>
			<path class="st4" d="M346.4,505.8l81.6,47.1v94.2l-81.6,47.1l-81.6-47.1v-94.2L346.4,505.8 M346.4,500l-86.6,50v100l86.6,50
				l86.6-50V550L346.4,500L346.4,500z"/>
		</g>
		<g>
			<path class="st4" d="M519.6,505.8l81.6,47.1v94.2l-81.6,47.1L438,647.1v-94.2L519.6,505.8 M519.6,500L433,550v100l86.6,50
				l86.6-50V550L519.6,500L519.6,500z"/>
		</g>
		<g>
			<path class="st4" d="M692.8,505.8l81.6,47.1v94.2l-81.6,47.1l-81.6-47.1v-94.2L692.8,505.8 M692.8,500l-86.6,50v100l86.6,50
				l86.6-50V550L692.8,500L692.8,500z"/>
		</g>
		<g>
			<path class="st4" d="M866,505.8l81.6,47.1v94.2L866,694.2l-81.6-47.1l0-94.2L866,505.8 M866,500l-86.6,50l0,100l86.6,50l86.6-50
				V550L866,500L866,500z"/>
		</g>
		<g>
			<path class="st4" d="M1039.2,505.8l81.6,47.1v94.2l-81.6,47.1l-81.6-47.1v-94.2L1039.2,505.8 M1039.2,500l-86.6,50v100l86.6,50
				l86.6-50V550L1039.2,500L1039.2,500z"/>
		</g>
		<g>
			<path class="st4" d="M1212.4,505.8l81.6,47.1l0,94.2l-81.6,47.1l-81.6-47.1l0-94.2L1212.4,505.8 M1212.4,500l-86.6,50l0,100
				l86.6,50l86.6-50l0-100L1212.4,500L1212.4,500z"/>
		</g>
		<g>
			<path class="st4" d="M1385.6,505.8l81.6,47.1v94.2l-81.6,47.1l-81.6-47.1v-94.2L1385.6,505.8 M1385.6,500l-86.6,50v100l86.6,50
				l86.6-50V550L1385.6,500L1385.6,500z"/>
		</g>
		<g>
			<path class="st4" d="M1558.8,505.8l81.6,47.1v94.2l-81.6,47.1l-81.6-47.1v-94.2L1558.8,505.8 M1558.8,500l-86.6,50v100l86.6,50
				l86.6-50V550L1558.8,500L1558.8,500z"/>
		</g>
		<g>
			<path class="st4" d="M1732.1,505.8l81.6,47.1v94.2l-81.6,47.1l-81.6-47.1v-94.2L1732.1,505.8 M1732.1,500l-86.6,50v100l86.6,50
				l86.6-50V550L1732.1,500L1732.1,500z"/>
		</g>
		<g>
			<path class="st4" d="M1905.3,505.8l81.6,47.1v94.2l-81.6,47.1l-81.6-47.1v-94.2L1905.3,505.8 M1905.3,500l-86.6,50v100l86.6,50
				l86.6-50V550L1905.3,500L1905.3,500z"/>
		</g>
		<g>
			<path class="st4" d="M86.6,655.8l81.6,47.1v94.2l-81.6,47.1L5,797.1v-94.2L86.6,655.8 M86.6,650L0,700v100l86.6,50l86.6-50V700
				L86.6,650L86.6,650z"/>
		</g>
		<g>
			<path class="st4" d="M259.8,655.8l81.6,47.1v94.2l-81.6,47.1l-81.6-47.1v-94.2L259.8,655.8 M259.8,650l-86.6,50v100l86.6,50
				l86.6-50V700L259.8,650L259.8,650z"/>
		</g>
		<g>
			<path class="st4" d="M433,655.8l81.6,47.1v94.2L433,844.2l-81.6-47.1v-94.2L433,655.8 M433,650l-86.6,50v100l86.6,50l86.6-50V700
				L433,650L433,650z"/>
		</g>
		<g>
			<path class="st4" d="M606.2,655.8l81.6,47.1v94.2l-81.6,47.1l-81.6-47.1v-94.2L606.2,655.8 M606.2,650l-86.6,50v100l86.6,50
				l86.6-50V700L606.2,650L606.2,650z"/>
		</g>
		<g>
			<path class="st4" d="M779.4,655.8l81.6,47.1v94.2l-81.6,47.1l-81.6-47.1l0-94.2L779.4,655.8 M779.4,650l-86.6,50l0,100l86.6,50
				l86.6-50V700L779.4,650L779.4,650z"/>
		</g>
		<g>
			<path class="st4" d="M952.6,655.8l81.6,47.1v94.2l-81.6,47.1L871,797.1v-94.2L952.6,655.8 M952.6,650L866,700v100l86.6,50
				l86.6-50V700L952.6,650L952.6,650z"/>
		</g>
		<g>
			<path class="st4" d="M1125.8,655.8l81.6,47.1v94.2l-81.6,47.1l-81.6-47.1v-94.2L1125.8,655.8 M1125.8,650l-86.6,50v100l86.6,50
				l86.6-50V700L1125.8,650L1125.8,650z"/>
		</g>
		<g>
			<path class="st4" d="M1299,655.8l81.6,47.1v94.2l-81.6,47.1l-81.6-47.1v-94.2L1299,655.8 M1299,650l-86.6,50v100l86.6,50l86.6-50
				V700L1299,650L1299,650z"/>
		</g>
		<g>
			<path class="st4" d="M1472.2,655.8l81.6,47.1v94.2l-81.6,47.1l-81.6-47.1v-94.2L1472.2,655.8 M1472.2,650l-86.6,50v100l86.6,50
				l86.6-50V700L1472.2,650L1472.2,650z"/>
		</g>
		<g>
			<path class="st4" d="M1645.4,655.8l81.6,47.1v94.2l-81.6,47.1l-81.6-47.1v-94.2L1645.4,655.8 M1645.4,650l-86.6,50v100l86.6,50
				l86.6-50V700L1645.4,650L1645.4,650z"/>
		</g>
		<g>
			<path class="st4" d="M1818.7,655.8l81.6,47.1v94.2l-81.6,47.1l-81.6-47.1v-94.2L1818.7,655.8 M1818.7,650l-86.6,50v100l86.6,50
				l86.6-50V700L1818.7,650L1818.7,650z"/>
		</g>
		<g>
			<path class="st4" d="M1991.9,655.8l81.6,47.1v94.2l-81.6,47.1l-81.6-47.1v-94.2L1991.9,655.8 M1991.9,650l-86.6,50v100l86.6,50
				l86.6-50V700L1991.9,650L1991.9,650z"/>
		</g>
		<g>
			<path class="st4" d="M0,805.8l81.6,47.1v94.2L0,994.2l-81.6-47.1v-94.2L0,805.8 M0,800l-86.6,50v100L0,1000l86.6-50V850L0,800
				L0,800z"/>
		</g>
		<g>
			<path class="st4" d="M173.2,805.8l81.6,47.1v94.2l-81.6,47.1l-81.6-47.1v-94.2L173.2,805.8 M173.2,800l-86.6,50v100l86.6,50
				l86.6-50V850L173.2,800L173.2,800z"/>
		</g>
		<g>
			<path class="st4" d="M346.4,805.8l81.6,47.1v94.2l-81.6,47.1l-81.6-47.1v-94.2L346.4,805.8 M346.4,800l-86.6,50v100l86.6,50
				l86.6-50V850L346.4,800L346.4,800z"/>
		</g>
		<g>
			<path class="st4" d="M519.6,805.8l81.6,47.1v94.2l-81.6,47.1L438,947.1v-94.2L519.6,805.8 M519.6,800L433,850v100l86.6,50
				l86.6-50V850L519.6,800L519.6,800z"/>
		</g>
		<g>
			<path class="st4" d="M692.8,805.8l81.6,47.1v94.2l-81.6,47.1l-81.6-47.1v-94.2L692.8,805.8 M692.8,800l-86.6,50v100l86.6,50
				l86.6-50V850L692.8,800L692.8,800z"/>
		</g>
		<g>
			<path class="st4" d="M866,805.8l81.6,47.1v94.2L866,994.2l-81.6-47.1l0-94.2L866,805.8 M866,800l-86.6,50l0,100l86.6,50l86.6-50
				V850L866,800L866,800z"/>
		</g>
		<g>
			<path class="st4" d="M1039.2,805.8l81.6,47.1v94.2l-81.6,47.1l-81.6-47.1v-94.2L1039.2,805.8 M1039.2,800l-86.6,50v100l86.6,50
				l86.6-50V850L1039.2,800L1039.2,800z"/>
		</g>
		<g>
			<path class="st4" d="M1212.4,805.8l81.6,47.1l0,94.2l-81.6,47.1l-81.6-47.1l0-94.2L1212.4,805.8 M1212.4,800l-86.6,50l0,100
				l86.6,50l86.6-50l0-100L1212.4,800L1212.4,800z"/>
		</g>
		<g>
			<path class="st4" d="M1385.6,805.8l81.6,47.1v94.2l-81.6,47.1l-81.6-47.1v-94.2L1385.6,805.8 M1385.6,800l-86.6,50v100l86.6,50
				l86.6-50V850L1385.6,800L1385.6,800z"/>
		</g>
		<g>
			<path class="st4" d="M1558.8,805.8l81.6,47.1v94.2l-81.6,47.1l-81.6-47.1v-94.2L1558.8,805.8 M1558.8,800l-86.6,50v100l86.6,50
				l86.6-50V850L1558.8,800L1558.8,800z"/>
		</g>
		<g>
			<path class="st4" d="M1732.1,805.8l81.6,47.1v94.2l-81.6,47.1l-81.6-47.1v-94.2L1732.1,805.8 M1732.1,800l-86.6,50v100l86.6,50
				l86.6-50V850L1732.1,800L1732.1,800z"/>
		</g>
		<g>
			<path class="st4" d="M1905.3,805.8l81.6,47.1v94.2l-81.6,47.1l-81.6-47.1v-94.2L1905.3,805.8 M1905.3,800l-86.6,50v100l86.6,50
				l86.6-50V850L1905.3,800L1905.3,800z"/>
		</g>
		<g>
			<path class="st4" d="M86.6,955.8l81.6,47.1v94.2l-81.6,47.1L5,1097.1v-94.2L86.6,955.8 M86.6,950L0,1000v100l86.6,50l86.6-50
				v-100L86.6,950L86.6,950z"/>
		</g>
		<g>
			<path class="st4" d="M259.8,955.8l81.6,47.1v94.2l-81.6,47.1l-81.6-47.1v-94.2L259.8,955.8 M259.8,950l-86.6,50v100l86.6,50
				l86.6-50v-100L259.8,950L259.8,950z"/>
		</g>
		<g>
			<path class="st4" d="M433,955.8l81.6,47.1v94.2l-81.6,47.1l-81.6-47.1v-94.2L433,955.8 M433,950l-86.6,50v100l86.6,50l86.6-50
				v-100L433,950L433,950z"/>
		</g>
		<g>
			<path class="st4" d="M606.2,955.8l81.6,47.1v94.2l-81.6,47.1l-81.6-47.1v-94.2L606.2,955.8 M606.2,950l-86.6,50v100l86.6,50
				l86.6-50v-100L606.2,950L606.2,950z"/>
		</g>
		<g>
			<path class="st4" d="M779.4,955.8l81.6,47.1v94.2l-81.6,47.1l-81.6-47.1l0-94.2L779.4,955.8 M779.4,950l-86.6,50l0,100l86.6,50
				l86.6-50v-100L779.4,950L779.4,950z"/>
		</g>
		<g>
			<path class="st4" d="M952.6,955.8l81.6,47.1v94.2l-81.6,47.1l-81.6-47.1v-94.2L952.6,955.8 M952.6,950l-86.6,50v100l86.6,50
				l86.6-50v-100L952.6,950L952.6,950z"/>
		</g>
		<g>
			<path class="st4" d="M1125.8,955.8l81.6,47.1v94.2l-81.6,47.1l-81.6-47.1v-94.2L1125.8,955.8 M1125.8,950l-86.6,50v100l86.6,50
				l86.6-50v-100L1125.8,950L1125.8,950z"/>
		</g>
		<g>
			<path class="st4" d="M1299,955.8l81.6,47.1v94.2l-81.6,47.1l-81.6-47.1v-94.2L1299,955.8 M1299,950l-86.6,50v100l86.6,50l86.6-50
				v-100L1299,950L1299,950z"/>
		</g>
		<g>
			<path class="st4" d="M1472.2,955.8l81.6,47.1v94.2l-81.6,47.1l-81.6-47.1v-94.2L1472.2,955.8 M1472.2,950l-86.6,50v100l86.6,50
				l86.6-50v-100L1472.2,950L1472.2,950z"/>
		</g>
		<g>
			<path class="st4" d="M1645.4,955.8l81.6,47.1v94.2l-81.6,47.1l-81.6-47.1v-94.2L1645.4,955.8 M1645.4,950l-86.6,50v100l86.6,50
				l86.6-50v-100L1645.4,950L1645.4,950z"/>
		</g>
		<g>
			<path class="st4" d="M1818.7,955.8l81.6,47.1v94.2l-81.6,47.1l-81.6-47.1v-94.2L1818.7,955.8 M1818.7,950l-86.6,50v100l86.6,50
				l86.6-50v-100L1818.7,950L1818.7,950z"/>
		</g>
		<g>
			<path class="st4" d="M1991.9,955.8l81.6,47.1v94.2l-81.6,47.1l-81.6-47.1v-94.2L1991.9,955.8 M1991.9,950l-86.6,50v100l86.6,50
				l86.6-50v-100L1991.9,950L1991.9,950z"/>
		</g>
	</g>
</g>
</svg>
